<svg xmlns="http://www.w3.org/2000/svg" width="36.569" height="32" viewBox="0 0 36.569 32">
  <path id="react_logo" d="M29.87,42.382q-.579-.193-1.157-.364c.064-.264.121-.529.179-.793.879-4.257.3-7.678-1.65-8.807-1.878-1.079-4.943.043-8.042,2.743-.307.264-.607.543-.893.821-.193-.186-.393-.371-.593-.55-3.25-2.886-6.507-4.1-8.457-2.964C7.385,33.554,6.828,36.776,7.614,40.8c.079.4.164.793.264,1.193-.457.129-.907.271-1.329.421C2.736,43.74,0,45.825,0,47.982c0,2.228,2.914,4.464,6.878,5.821.321.107.643.214.971.307-.107.429-.2.85-.286,1.286C6.814,59.36,7.4,62.5,9.271,63.581c1.928,1.114,5.171-.029,8.328-2.793.25-.221.5-.45.75-.693.314.307.643.6.971.886,3.057,2.628,6.078,3.693,7.942,2.614,1.928-1.114,2.557-4.493,1.743-8.607q-.1-.471-.214-.964c.229-.064.45-.136.671-.207,4.121-1.364,7.107-3.571,7.107-5.835C36.569,45.818,33.755,43.718,29.87,42.382Zm-9.664-6.064C22.863,34,25.342,33.1,26.47,33.747c1.207.693,1.671,3.493.914,7.171-.05.243-.1.479-.164.714a36.563,36.563,0,0,0-4.807-.757,36.087,36.087,0,0,0-3.043-3.793C19.649,36.818,19.92,36.568,20.206,36.319ZM11.942,51.689c.364.621.736,1.243,1.129,1.85A32.343,32.343,0,0,1,9.757,53a33.365,33.365,0,0,1,1.164-3.178c.329.629.664,1.25,1.021,1.864ZM9.778,43.1c1.029-.229,2.121-.414,3.257-.557-.379.593-.75,1.2-1.1,1.814s-.693,1.229-1.014,1.857c-.45-1.064-.829-2.107-1.143-3.114Zm1.957,4.921c.471-.986.986-1.95,1.528-2.9s1.129-1.871,1.743-2.778c1.071-.079,2.164-.121,3.278-.121s2.214.043,3.278.121q.911,1.35,1.736,2.764t1.55,2.886q-.718,1.478-1.543,2.914c-.543.95-1.121,1.871-1.728,2.786-1.064.079-2.171.114-3.293.114s-2.207-.036-3.257-.1q-.932-1.361-1.757-2.786c-.55-.95-1.057-1.914-1.536-2.9Zm12.9,3.657c.364-.629.707-1.264,1.043-1.907a33.156,33.156,0,0,1,1.207,3.164,31.372,31.372,0,0,1-3.357.571c.386-.6.75-1.214,1.107-1.828Zm1.029-5.464c-.336-.629-.679-1.257-1.036-1.871s-.714-1.207-1.093-1.8a32.867,32.867,0,0,1,3.278.571A31.61,31.61,0,0,1,25.663,46.211ZM18.3,38.176a31.365,31.365,0,0,1,2.114,2.557c-1.414-.064-2.836-.064-4.25,0C16.863,39.811,17.585,38.954,18.3,38.176ZM10.014,33.8c1.2-.7,3.864.3,6.671,2.786.179.157.357.329.543.5a36.287,36.287,0,0,0-3.064,3.793,37.65,37.65,0,0,0-4.8.743c-.093-.364-.171-.736-.25-1.107-.671-3.457-.229-6.064.9-6.714ZM8.264,52.625c-.3-.086-.593-.179-.886-.279a14.567,14.567,0,0,1-4.5-2.228,3.2,3.2,0,0,1-1.343-2.136c0-1.307,2.257-2.978,5.514-4.114.407-.143.821-.271,1.236-.393a37.98,37.98,0,0,0,1.75,4.543A39.042,39.042,0,0,0,8.264,52.625Zm8.328,7a13.073,13.073,0,0,1-4.028,2.521,3.161,3.161,0,0,1-2.521.093c-1.136-.657-1.607-3.178-.964-6.571.079-.4.164-.8.264-1.193a35.732,35.732,0,0,0,4.85.7,37.693,37.693,0,0,0,3.086,3.814c-.229.221-.457.436-.686.636Zm1.75-1.736c-.729-.786-1.457-1.657-2.164-2.593.686.029,1.393.043,2.107.043.736,0,1.457-.014,2.171-.05A30.8,30.8,0,0,1,18.342,57.889Zm9.335,2.143A3.174,3.174,0,0,1,26.5,62.267c-1.136.657-3.557-.2-6.171-2.443-.3-.257-.6-.536-.907-.821a35.333,35.333,0,0,0,3.014-3.828,35.209,35.209,0,0,0,4.871-.75c.071.293.136.586.193.871A13.02,13.02,0,0,1,27.677,60.032Zm1.3-7.678c-.2.064-.4.129-.607.186a36.284,36.284,0,0,0-1.821-4.557A36.1,36.1,0,0,0,28.3,43.49c.371.107.729.221,1.071.336,3.328,1.143,5.664,2.843,5.664,4.143C35.034,49.368,32.541,51.175,28.977,52.353ZM18.285,51.282a3.271,3.271,0,1,0-3.271-3.271A3.271,3.271,0,0,0,18.285,51.282Z" transform="translate(0 -32.012)" fill="#08f"/>
</svg>
